# Blender v2.78 (sub 0) OBJ File: 'place_all_wallmounted.blend'
# www.blender.org
mtllib place_all_wallmounted.mtl
o front_Plane
v -0.500000 -0.437500 0.500000
v 0.500000 -0.437500 0.500000
v -0.500000 -0.437500 -0.500000
v 0.500000 -0.437500 -0.500000
vt 1.0000 1.0000
vt 0.0000 1.0000
vt 0.0000 0.0000
vt 1.0000 0.0000
vn 0.0000 1.0000 0.0000
usemtl None
s off
f 1/1/1 2/2/1 4/3/1 3/4/1
o top_ID137
v 0.500000 -0.500000 0.500000
v -0.500000 -0.437500 0.500000
v -0.500000 -0.500000 0.500000
v 0.500000 -0.437500 0.500000
v 0.500000 -0.500000 0.437500
v -0.500000 -0.437500 0.437500
v -0.500000 -0.500000 0.437500
v 0.500000 -0.437500 0.437500
v 0.500000 -0.500000 0.062500
v -0.500000 -0.437500 0.062500
v -0.500000 -0.500000 0.062500
v 0.500000 -0.437500 0.062500
v 0.500000 -0.500000 0.250000
v -0.500000 -0.437500 0.250000
v -0.500000 -0.500000 0.250000
v 0.500000 -0.437500 0.250000
v 0.500000 -0.500000 -0.000000
v -0.500000 -0.437500 -0.000000
v -0.500000 -0.500000 -0.000000
v 0.500000 -0.437500 -0.000000
v 0.500000 -0.500000 0.375000
v -0.500000 -0.437500 0.375000
v -0.500000 -0.500000 0.375000
v 0.500000 -0.437500 0.375000
v 0.500000 -0.500000 0.125000
v -0.500000 -0.437500 0.125000
v -0.500000 -0.500000 0.125000
v 0.500000 -0.437500 0.125000
v 0.500000 -0.500000 0.187500
v -0.500000 -0.437500 0.187500
v -0.500000 -0.500000 0.187500
v 0.500000 -0.437500 0.187500
v 0.500000 -0.500000 0.312500
v -0.500000 -0.437500 0.312500
v -0.500000 -0.500000 0.312500
v 0.500000 -0.437500 0.312500
v 0.500000 -0.500000 -0.125000
v -0.500000 -0.437500 -0.125000
v -0.500000 -0.500000 -0.125000
v 0.500000 -0.437500 -0.125000
v 0.500000 -0.500000 -0.062500
v -0.500000 -0.437500 -0.062500
v -0.500000 -0.500000 -0.062500
v 0.500000 -0.437500 -0.062500
v 0.500000 -0.500000 -0.250000
v -0.500000 -0.437500 -0.250000
v -0.500000 -0.500000 -0.250000
v 0.500000 -0.437500 -0.250000
v 0.500000 -0.500000 -0.187500
v -0.500000 -0.437500 -0.187500
v -0.500000 -0.500000 -0.187500
v 0.500000 -0.437500 -0.187500
v 0.500000 -0.500000 -0.312500
v -0.500000 -0.437500 -0.312500
v -0.500000 -0.500000 -0.312500
v 0.500000 -0.437500 -0.312500
v 0.500000 -0.500000 -0.375000
v -0.500000 -0.437500 -0.375000
v -0.500000 -0.500000 -0.375000
v 0.500000 -0.437500 -0.375000
v 0.500000 -0.500000 -0.437500
v -0.500000 -0.437500 -0.437500
v -0.500000 -0.500000 -0.437500
v 0.500000 -0.437500 -0.437500
vt -0.0000 0.9375
vt -0.0000 0.8750
vt 1.0000 0.8750
vt 1.0000 0.9375
vt 0.0000 0.5625
vt 0.0000 0.5000
vt 1.0000 0.5000
vt 1.0000 0.5625
vt -0.0000 0.7500
vt -0.0000 0.6875
vt 1.0000 0.6875
vt 1.0000 0.7500
vt 0.0000 0.5000
vt 0.0000 0.4375
vt 1.0000 0.4375
vt 1.0000 0.5000
vt -0.0000 0.8750
vt -0.0000 0.8125
vt 1.0000 0.8125
vt 1.0000 0.8750
vt -0.0000 0.6250
vt -0.0000 0.5625
vt 1.0000 0.5625
vt 1.0000 0.6250
vt 0.0000 0.6875
vt 0.0000 0.6250
vt 1.0000 0.6250
vt 1.0000 0.6875
vt 0.0000 0.8125
vt 0.0000 0.7500
vt 1.0000 0.7500
vt 1.0000 0.8125
vt 0.0000 0.3750
vt 0.0000 0.3125
vt 1.0000 0.3125
vt 1.0000 0.3750
vt 0.0000 0.4375
vt 0.0000 0.3750
vt 1.0000 0.3750
vt 1.0000 0.4375
vt 0.0000 0.2500
vt 0.0000 0.1875
vt 1.0000 0.1875
vt 1.0000 0.2500
vt 0.0000 0.3125
vt 0.0000 0.2500
vt 1.0000 0.2500
vt 1.0000 0.3125
vt -0.0000 0.1875
vt -0.0000 0.1250
vt 1.0000 0.1250
vt 1.0000 0.1875
vt 0.0000 0.1250
vt 0.0000 0.0625
vt 1.0000 0.0625
vt 1.0000 0.1250
vt 0.0000 0.0625
vt 0.0000 0.0000
vt 1.0000 0.0000
vt 1.0000 0.0625
vt 0.0000 1.0000
vt 0.0000 0.9375
vt 1.0000 0.9375
vt 1.0000 1.0000
vn 0.0000 0.0000 1.0000
usemtl material
s off
f 9/5/2 12/6/2 10/7/2 11/8/2
f 13/9/2 16/10/2 14/11/2 15/12/2
f 17/13/2 20/14/2 18/15/2 19/16/2
f 21/17/2 24/18/2 22/19/2 23/20/2
f 25/21/2 28/22/2 26/23/2 27/24/2
f 29/25/2 32/26/2 30/27/2 31/28/2
f 33/29/2 36/30/2 34/31/2 35/32/2
f 37/33/2 40/34/2 38/35/2 39/36/2
f 41/37/2 44/38/2 42/39/2 43/40/2
f 45/41/2 48/42/2 46/43/2 47/44/2
f 49/45/2 52/46/2 50/47/2 51/48/2
f 53/49/2 56/50/2 54/51/2 55/52/2
f 57/53/2 60/54/2 58/55/2 59/56/2
f 61/57/2 64/58/2 62/59/2 63/60/2
f 65/61/2 68/62/2 66/63/2 67/64/2
f 5/65/2 8/66/2 6/67/2 7/68/2
o Cube
v 0.500000 -0.500000 0.500000
v 0.500000 -0.500000 1.500000
v -0.500000 -0.500000 1.500000
v -0.500000 -0.500000 0.500000
v 0.500000 0.500000 0.500000
v 0.500000 0.500000 1.500000
v -0.500000 0.500000 1.500000
v -0.500000 0.500000 0.500000
vn 0.0000 -1.0000 0.0000
vn 0.0000 1.0000 0.0000
vn 1.0000 0.0000 0.0000
vn -0.0000 -0.0000 1.0000
vn -1.0000 -0.0000 -0.0000
vn 0.0000 0.0000 -1.0000
usemtl Material
s off
f 69//3 70//3 71//3 72//3
f 73//4 76//4 75//4 74//4
f 69//5 73//5 74//5 70//5
f 70//6 74//6 75//6 71//6
f 71//7 75//7 76//7 72//7
f 73//8 69//8 72//8 76//8
o bottom_ID137.002
v -0.500000 -0.500000 -0.500000
v 0.500000 -0.437500 -0.500000
v 0.500000 -0.500000 -0.500000
v -0.500000 -0.437500 -0.500000
v -0.500000 -0.500000 -0.437500
v 0.500000 -0.437500 -0.437500
v 0.500000 -0.500000 -0.437500
v -0.500000 -0.437500 -0.437500
v -0.500000 -0.500000 -0.062500
v 0.500000 -0.437500 -0.062500
v 0.500000 -0.500000 -0.062500
v -0.500000 -0.437500 -0.062500
v -0.500000 -0.500000 -0.250000
v 0.500000 -0.437500 -0.250000
v 0.500000 -0.500000 -0.250000
v -0.500000 -0.437500 -0.250000
v -0.500000 -0.500000 0.000000
v 0.500000 -0.437500 -0.000000
v 0.500000 -0.500000 -0.000000
v -0.500000 -0.437500 0.000000
v -0.500000 -0.500000 -0.375000
v 0.500000 -0.437500 -0.375000
v 0.500000 -0.500000 -0.375000
v -0.500000 -0.437500 -0.375000
v -0.500000 -0.500000 -0.125000
v 0.500000 -0.437500 -0.125000
v 0.500000 -0.500000 -0.125000
v -0.500000 -0.437500 -0.125000
v -0.500000 -0.500000 -0.187500
v 0.500000 -0.437500 -0.187500
v 0.500000 -0.500000 -0.187500
v -0.500000 -0.437500 -0.187500
v -0.500000 -0.500000 -0.312500
v 0.500000 -0.437500 -0.312500
v 0.500000 -0.500000 -0.312500
v -0.500000 -0.437500 -0.312500
v -0.500000 -0.500000 0.125000
v 0.500000 -0.437500 0.125000
v 0.500000 -0.500000 0.125000
v -0.500000 -0.437500 0.125000
v -0.500000 -0.500000 0.062500
v 0.500000 -0.437500 0.062500
v 0.500000 -0.500000 0.062500
v -0.500000 -0.437500 0.062500
v -0.500000 -0.500000 0.250000
v 0.500000 -0.437500 0.250000
v 0.500000 -0.500000 0.250000
v -0.500000 -0.437500 0.250000
v -0.500000 -0.500000 0.187500
v 0.500000 -0.437500 0.187500
v 0.500000 -0.500000 0.187500
v -0.500000 -0.437500 0.187500
v -0.500000 -0.500000 0.312500
v 0.500000 -0.437500 0.312500
v 0.500000 -0.500000 0.312500
v -0.500000 -0.437500 0.312500
v -0.500000 -0.500000 0.375000
v 0.500000 -0.437500 0.375000
v 0.500000 -0.500000 0.375000
v -0.500000 -0.437500 0.375000
v -0.500000 -0.500000 0.437500
v 0.500000 -0.437500 0.437500
v 0.500000 -0.500000 0.437500
v -0.500000 -0.437500 0.437500
vt 1.0000 0.0625
vt 1.0000 0.1250
vt 0.0000 0.1250
vt 0.0000 0.0625
vt 1.0000 0.4375
vt 1.0000 0.5000
vt 0.0000 0.5000
vt 0.0000 0.4375
vt 1.0000 0.2500
vt 1.0000 0.3125
vt 0.0000 0.3125
vt 0.0000 0.2500
vt 1.0000 0.5000
vt 1.0000 0.5625
vt 0.0000 0.5625
vt 0.0000 0.5000
vt 1.0000 0.1250
vt 1.0000 0.1875
vt 0.0000 0.1875
vt 0.0000 0.1250
vt 1.0000 0.3750
vt 1.0000 0.4375
vt 0.0000 0.4375
vt 0.0000 0.3750
vt 1.0000 0.3125
vt 1.0000 0.3750
vt 0.0000 0.3750
vt 0.0000 0.3125
vt 1.0000 0.1875
vt 1.0000 0.2500
vt 0.0000 0.2500
vt 0.0000 0.1875
vt 1.0000 0.6250
vt 1.0000 0.6875
vt 0.0000 0.6875
vt 0.0000 0.6250
vt 1.0000 0.5625
vt 1.0000 0.6250
vt 0.0000 0.6250
vt 0.0000 0.5625
vt 1.0000 0.7500
vt 1.0000 0.8125
vt 0.0000 0.8125
vt 0.0000 0.7500
vt 1.0000 0.6875
vt 1.0000 0.7500
vt 0.0000 0.7500
vt 0.0000 0.6875
vt 1.0000 0.8125
vt 1.0000 0.8750
vt 0.0000 0.8750
vt 0.0000 0.8125
vt 1.0000 0.8750
vt 1.0000 0.9375
vt 0.0000 0.9375
vt 0.0000 0.8750
vt 1.0000 0.9375
vt 1.0000 1.0000
vt 0.0000 1.0000
vt 0.0000 0.9375
vt 1.0000 0.0000
vt 1.0000 0.0625
vt 0.0000 0.0625
vt 0.0000 0.0000
vn -0.0000 0.0000 -1.0000
usemtl material.001
s off
f 81/69/9 84/70/9 82/71/9 83/72/9
f 85/73/9 88/74/9 86/75/9 87/76/9
f 89/77/9 92/78/9 90/79/9 91/80/9
f 93/81/9 96/82/9 94/83/9 95/84/9
f 97/85/9 100/86/9 98/87/9 99/88/9
f 101/89/9 104/90/9 102/91/9 103/92/9
f 105/93/9 108/94/9 106/95/9 107/96/9
f 109/97/9 112/98/9 110/99/9 111/100/9
f 113/101/9 116/102/9 114/103/9 115/104/9
f 117/105/9 120/106/9 118/107/9 119/108/9
f 121/109/9 124/110/9 122/111/9 123/112/9
f 125/113/9 128/114/9 126/115/9 127/116/9
f 129/117/9 132/118/9 130/119/9 131/120/9
f 133/121/9 136/122/9 134/123/9 135/124/9
f 137/125/9 140/126/9 138/127/9 139/128/9
f 77/129/9 80/130/9 78/131/9 79/132/9
o right_ID137.003
v -0.500000 -0.500000 0.500000
v -0.500000 -0.437500 -0.500000
v -0.500000 -0.500000 -0.500000
v -0.500000 -0.437500 0.500000
v -0.437500 -0.500000 0.500000
v -0.437500 -0.437500 -0.500000
v -0.437500 -0.500000 -0.500000
v -0.437500 -0.437500 0.500000
v -0.062500 -0.500000 0.500000
v -0.062500 -0.437500 -0.500000
v -0.062500 -0.500000 -0.500000
v -0.062500 -0.437500 0.500000
v -0.250000 -0.500000 0.500000
v -0.250000 -0.437500 -0.500000
v -0.250000 -0.500000 -0.500000
v -0.250000 -0.437500 0.500000
v 0.000000 -0.500000 0.500000
v -0.000000 -0.437500 -0.500000
v -0.000000 -0.500000 -0.500000
v 0.000000 -0.437500 0.500000
v -0.375000 -0.500000 0.500000
v -0.375000 -0.437500 -0.500000
v -0.375000 -0.500000 -0.500000
v -0.375000 -0.437500 0.500000
v -0.125000 -0.500000 0.500000
v -0.125000 -0.437500 -0.500000
v -0.125000 -0.500000 -0.500000
v -0.125000 -0.437500 0.500000
v -0.187500 -0.500000 0.500000
v -0.187500 -0.437500 -0.500000
v -0.187500 -0.500000 -0.500000
v -0.187500 -0.437500 0.500000
v -0.312500 -0.500000 0.500000
v -0.312500 -0.437500 -0.500000
v -0.312500 -0.500000 -0.500000
v -0.312500 -0.437500 0.500000
v 0.125000 -0.500000 0.500000
v 0.125000 -0.437500 -0.500000
v 0.125000 -0.500000 -0.500000
v 0.125000 -0.437500 0.500000
v 0.062500 -0.500000 0.500000
v 0.062500 -0.437500 -0.500000
v 0.062500 -0.500000 -0.500000
v 0.062500 -0.437500 0.500000
v 0.250000 -0.500000 0.500000
v 0.250000 -0.437500 -0.500000
v 0.250000 -0.500000 -0.500000
v 0.250000 -0.437500 0.500000
v 0.187500 -0.500000 0.500000
v 0.187500 -0.437500 -0.500000
v 0.187500 -0.500000 -0.500000
v 0.187500 -0.437500 0.500000
v 0.312500 -0.500000 0.500000
v 0.312500 -0.437500 -0.500000
v 0.312500 -0.500000 -0.500000
v 0.312500 -0.437500 0.500000
v 0.375000 -0.500000 0.500000
v 0.375000 -0.437500 -0.500000
v 0.375000 -0.500000 -0.500000
v 0.375000 -0.437500 0.500000
v 0.437500 -0.500000 0.500000
v 0.437500 -0.437500 -0.500000
v 0.437500 -0.500000 -0.500000
v 0.437500 -0.437500 0.500000
vt 0.9375 1.0000
vt 0.8750 1.0000
vt 0.8750 -0.0000
vt 0.9375 -0.0000
vt 0.5625 1.0000
vt 0.5000 1.0000
vt 0.5000 0.0000
vt 0.5625 -0.0000
vt 0.7500 1.0000
vt 0.6875 1.0000
vt 0.6875 -0.0000
vt 0.7500 -0.0000
vt 0.5000 1.0000
vt 0.4375 1.0000
vt 0.4375 0.0000
vt 0.5000 0.0000
vt 0.8750 1.0000
vt 0.8125 1.0000
vt 0.8125 -0.0000
vt 0.8750 -0.0000
vt 0.6250 1.0000
vt 0.5625 1.0000
vt 0.5625 -0.0000
vt 0.6250 -0.0000
vt 0.6875 1.0000
vt 0.6250 1.0000
vt 0.6250 -0.0000
vt 0.6875 -0.0000
vt 0.8125 1.0000
vt 0.7500 1.0000
vt 0.7500 -0.0000
vt 0.8125 -0.0000
vt 0.3750 1.0000
vt 0.3125 1.0000
vt 0.3125 0.0000
vt 0.3750 0.0000
vt 0.4375 1.0000
vt 0.3750 1.0000
vt 0.3750 0.0000
vt 0.4375 0.0000
vt 0.2500 1.0000
vt 0.1875 1.0000
vt 0.1875 0.0000
vt 0.2500 0.0000
vt 0.3125 1.0000
vt 0.2500 1.0000
vt 0.2500 0.0000
vt 0.3125 0.0000
vt 0.1875 1.0000
vt 0.1250 1.0000
vt 0.1250 0.0000
vt 0.1875 0.0000
vt 0.1250 1.0000
vt 0.0625 1.0000
vt 0.0625 0.0000
vt 0.1250 0.0000
vt 0.0625 1.0000
vt 0.0000 1.0000
vt -0.0000 0.0000
vt 0.0625 0.0000
vt 1.0000 1.0000
vt 0.9375 1.0000
vt 0.9375 -0.0000
vt 1.0000 -0.0000
vn -1.0000 0.0000 0.0000
usemtl material.002
s off
f 145/133/10 148/134/10 146/135/10 147/136/10
f 149/137/10 152/138/10 150/139/10 151/140/10
f 153/141/10 156/142/10 154/143/10 155/144/10
f 157/145/10 160/146/10 158/147/10 159/148/10
f 161/149/10 164/150/10 162/151/10 163/152/10
f 165/153/10 168/154/10 166/155/10 167/156/10
f 169/157/10 172/158/10 170/159/10 171/160/10
f 173/161/10 176/162/10 174/163/10 175/164/10
f 177/165/10 180/166/10 178/167/10 179/168/10
f 181/169/10 184/170/10 182/171/10 183/172/10
f 185/173/10 188/174/10 186/175/10 187/176/10
f 189/177/10 192/178/10 190/179/10 191/180/10
f 193/181/10 196/182/10 194/183/10 195/184/10
f 197/185/10 200/186/10 198/187/10 199/188/10
f 201/189/10 204/190/10 202/191/10 203/192/10
f 141/193/10 144/194/10 142/195/10 143/196/10
o left_ID137.004
v 0.500000 -0.500000 -0.500000
v 0.500000 -0.437500 0.500000
v 0.500000 -0.500000 0.500000
v 0.500000 -0.437500 -0.500000
v 0.437500 -0.500000 -0.500000
v 0.437500 -0.437500 0.500000
v 0.437500 -0.500000 0.500000
v 0.437500 -0.437500 -0.500000
v 0.062500 -0.500000 -0.500000
v 0.062500 -0.437500 0.500000
v 0.062500 -0.500000 0.500000
v 0.062500 -0.437500 -0.500000
v 0.250000 -0.500000 -0.500000
v 0.250000 -0.437500 0.500000
v 0.250000 -0.500000 0.500000
v 0.250000 -0.437500 -0.500000
v 0.000000 -0.500000 -0.500000
v -0.000000 -0.437500 0.500000
v -0.000000 -0.500000 0.500000
v 0.000000 -0.437500 -0.500000
v 0.375000 -0.500000 -0.500000
v 0.375000 -0.437500 0.500000
v 0.375000 -0.500000 0.500000
v 0.375000 -0.437500 -0.500000
v 0.125000 -0.500000 -0.500000
v 0.125000 -0.437500 0.500000
v 0.125000 -0.500000 0.500000
v 0.125000 -0.437500 -0.500000
v 0.187500 -0.500000 -0.500000
v 0.187500 -0.437500 0.500000
v 0.187500 -0.500000 0.500000
v 0.187500 -0.437500 -0.500000
v 0.312500 -0.500000 -0.500000
v 0.312500 -0.437500 0.500000
v 0.312500 -0.500000 0.500000
v 0.312500 -0.437500 -0.500000
v -0.125000 -0.500000 -0.500000
v -0.125000 -0.437500 0.500000
v -0.125000 -0.500000 0.500000
v -0.125000 -0.437500 -0.500000
v -0.062500 -0.500000 -0.500000
v -0.062500 -0.437500 0.500000
v -0.062500 -0.500000 0.500000
v -0.062500 -0.437500 -0.500000
v -0.250000 -0.500000 -0.500000
v -0.250000 -0.437500 0.500000
v -0.250000 -0.500000 0.500000
v -0.250000 -0.437500 -0.500000
v -0.187500 -0.500000 -0.500000
v -0.187500 -0.437500 0.500000
v -0.187500 -0.500000 0.500000
v -0.187500 -0.437500 -0.500000
v -0.312500 -0.500000 -0.500000
v -0.312500 -0.437500 0.500000
v -0.312500 -0.500000 0.500000
v -0.312500 -0.437500 -0.500000
v -0.375000 -0.500000 -0.500000
v -0.375000 -0.437500 0.500000
v -0.375000 -0.500000 0.500000
v -0.375000 -0.437500 -0.500000
v -0.437500 -0.500000 -0.500000
v -0.437500 -0.437500 0.500000
v -0.437500 -0.500000 0.500000
v -0.437500 -0.437500 -0.500000
vt 0.0625 0.0000
vt 0.1250 0.0000
vt 0.1250 1.0000
vt 0.0625 1.0000
vt 0.4375 0.0000
vt 0.5000 0.0000
vt 0.5000 1.0000
vt 0.4375 1.0000
vt 0.2500 0.0000
vt 0.3125 0.0000
vt 0.3125 1.0000
vt 0.2500 1.0000
vt 0.5000 0.0000
vt 0.5625 0.0000
vt 0.5625 1.0000
vt 0.5000 1.0000
vt 0.1250 0.0000
vt 0.1875 0.0000
vt 0.1875 1.0000
vt 0.1250 1.0000
vt 0.3750 0.0000
vt 0.4375 0.0000
vt 0.4375 1.0000
vt 0.3750 1.0000
vt 0.3125 0.0000
vt 0.3750 0.0000
vt 0.3750 1.0000
vt 0.3125 1.0000
vt 0.1875 0.0000
vt 0.2500 0.0000
vt 0.2500 1.0000
vt 0.1875 1.0000
vt 0.6250 0.0000
vt 0.6875 0.0000
vt 0.6875 1.0000
vt 0.6250 1.0000
vt 0.5625 0.0000
vt 0.6250 0.0000
vt 0.6250 1.0000
vt 0.5625 1.0000
vt 0.7500 0.0000
vt 0.8125 0.0000
vt 0.8125 1.0000
vt 0.7500 1.0000
vt 0.6875 0.0000
vt 0.7500 0.0000
vt 0.7500 1.0000
vt 0.6875 1.0000
vt 0.8125 0.0000
vt 0.8750 0.0000
vt 0.8750 1.0000
vt 0.8125 1.0000
vt 0.8750 0.0000
vt 0.9375 0.0000
vt 0.9375 1.0000
vt 0.8750 1.0000
vt 0.9375 0.0000
vt 1.0000 0.0000
vt 1.0000 1.0000
vt 0.9375 1.0000
vt 0.0000 0.0000
vt 0.0625 0.0000
vt 0.0625 1.0000
vt 0.0000 1.0000
vn 1.0000 0.0000 0.0000
usemtl material.003
s off
f 209/197/11 212/198/11 210/199/11 211/200/11
f 213/201/11 216/202/11 214/203/11 215/204/11
f 217/205/11 220/206/11 218/207/11 219/208/11
f 221/209/11 224/210/11 222/211/11 223/212/11
f 225/213/11 228/214/11 226/215/11 227/216/11
f 229/217/11 232/218/11 230/219/11 231/220/11
f 233/221/11 236/222/11 234/223/11 235/224/11
f 237/225/11 240/226/11 238/227/11 239/228/11
f 241/229/11 244/230/11 242/231/11 243/232/11
f 245/233/11 248/234/11 246/235/11 247/236/11
f 249/237/11 252/238/11 250/239/11 251/240/11
f 253/241/11 256/242/11 254/243/11 255/244/11
f 257/245/11 260/246/11 258/247/11 259/248/11
f 261/249/11 264/250/11 262/251/11 263/252/11
f 265/253/11 268/254/11 266/255/11 267/256/11
f 205/257/11 208/258/11 206/259/11 207/260/11
o back_Plane.001
v 0.500000 -0.500000 0.500000
v -0.500000 -0.500000 0.500000
v 0.500000 -0.500000 -0.500000
v -0.500000 -0.500000 -0.500000
vt 0.0000 1.0000
vt 1.0000 1.0000
vt 1.0000 0.0000
vt 0.0000 0.0000
vn -0.0000 -1.0000 -0.0000
usemtl None_texture.png.004
s off
f 269/261/12 270/262/12 272/263/12 271/264/12
